# xmcd
#
# Track frame offsets:
# 150
# 13757
# 36084
# 53024
# 66406
# 80638
# 100471
# 115806
# 132842
# 146271
# 158424
# 174594
# 191573
# 210762
#
# Disc length: 3088 seconds
#
#
# Revision: 0
# Processed by: cddbd v1.5.2PL0 Copyright (c) Steve Scherf et al.
# Submitted via: FreeRIP 2.945 
#
DISCID=b60c0e0e
DTITLE=Ruzsa Magdi - Ördögi angyal
DYEAR=2006
DGENRE=Blues
TTITLE0=Aprócska blues
TTITLE1=Csak a zene
TTITLE2=hip - hop
TTITLE3=Nem vagyok jó neked
TTITLE4=Új nap
TTITLE5=Eltévedt idegen
TTITLE6=Ciki ez a helyzet
TTITLE7=Álomangyal
TTITLE8=Szembejövõ sáv
TTITLE9=Nem baj
TTITLE10=Nekem nem szabad
TTITLE11=Még egy dal
TTITLE12=A sors a neved
TTITLE13=Vigyázz a madárra
EXTD=
EXTT0=
EXTT1=
EXTT2=
EXTT3=
EXTT4=
EXTT5=
EXTT6=
EXTT7=
EXTT8=
EXTT9=
EXTT10=
EXTT11=
EXTT12=
EXTT13=
PLAYORDER=
